<?xml version="1.0" encoding="UTF-8"?>
<svg width="480px" height="260px" viewBox="0 0 480 260" version="1.1" xmlns="http://www.w3.org/2000/svg" xmlns:xlink="http://www.w3.org/1999/xlink">
    <title>访问异常</title>
    <defs>
        <filter id="filter-1">
            <feColorMatrix in="SourceGraphic" type="matrix" values="0 0 0 0 0.647059 0 0 0 0 0.647059 0 0 0 0 0.952941 0 0 0 1.000000 0"></feColorMatrix>
        </filter>
    </defs>
    <g id="缺省" stroke="none" stroke-width="1" fill="none" fill-rule="evenodd">
        <g id="缺省插画" transform="translate(-1444.000000, -185.000000)">
            <g id="访问异常" transform="translate(1444.000000, 185.000000)">
                <g id="编组-31">
                    <rect id="矩形备份-4" fill="#FFFFFF" x="0" y="0" width="480" height="260"></rect>
                    <path d="M5,132.877345 C24.1224944,122.216655 39.4965788,111.493468 51.1222532,100.707783 C68.5607649,84.5292564 84.141292,77 108.861333,77 C133.581375,77 182.948624,128.177701 219,148" id="路径-26" fill="#A5A5F1" opacity="0.06"></path>
                    <path d="M334,45 C351.389767,32.3333333 364.536606,26 373.440516,26 C386.796381,26 411.610025,45 424,45" id="路径-27" fill="#A5A5F1" opacity="0.100000001"></path>
                    <path d="M312,166.412405 C312,166.412405 357.501531,151 378.296614,151 C399.091697,151 444.625562,188.455751 476,198" id="路径-29" fill="#A5A5F1" opacity="0.0788225446"></path>
                    <path d="M67,240 C108.635729,223.333333 164.635729,215 235,215 C305.364271,215 361.364271,223.333333 403,240" id="路径-19" fill="#A5A5F1" opacity="0.100000001"></path>
                </g>
                <rect id="矩形备份-10" fill="#C3C3F7" opacity="0.76264881" x="187" y="52.12" width="13" height="175"></rect>
                <rect id="矩形备份-11" fill="#E7E7FC" x="198" y="52.12" width="11" height="175"></rect>
                <path d="M209,73.5 L313.187175,73.017652 C315.599092,73.0064857 317.88731,74.0840978 319.414973,75.9505679 L339.33751,100.291542 C340.771063,102.043029 341.554322,104.236644 341.554322,106.5 L341.554322,106.532117 C341.554322,108.744575 340.638076,110.858246 339.02336,112.370748 L319.307432,130.838632 C317.82493,132.227289 315.869694,133 313.838394,133 L187,133 L187,133 L198,78 L209,73.5 Z" id="矩形备份-15" fill="#A5A5F3" transform="translate(264.277161, 103.000000) scale(1, -1) translate(-264.277161, -103.000000) "></path>
                <path d="M187,68 L315.209834,68 C317.608803,68 319.881149,69.076571 321.400596,70.9330017 L339.407098,92.9330017 C341.819416,95.8803256 341.819416,100.119674 339.407098,103.066998 L321.400596,125.066998 C319.881149,126.923429 317.608803,128 315.209834,128 L187,128 L187,128 L187,68 Z" id="矩形" fill="#D2D2F9"></path>
                <circle id="椭圆形" fill="#A5A5F3" cx="214" cy="98" r="6"></circle>
                <circle id="椭圆形备份-7" fill="#A5A5F3" cx="262" cy="98" r="6"></circle>
                <circle id="椭圆形" fill="#A5A5F3" cx="238" cy="98" r="6"></circle>
                <g filter="url(#filter-1)" id="问号,帮助">
                    <g transform="translate(276.000000, 82.000000)">
                        <rect id="矩形" fill="#000000" fill-rule="nonzero" opacity="0" x="0" y="0" width="28.8" height="28.8"></rect>
                        <path d="M24.7712282,9.64285714 C24.7712282,13.0242857 22.9413282,15.9589286 20.2623792,17.4117857 C19.5390017,17.8039286 18.9504912,18.3921429 18.5397598,19.0960714 C18.0585299,19.9253571 17.8286429,20.9153571 17.926728,21.9342857 C17.9573796,22.2364286 17.7305579,22.5 17.4393677,22.5 L13.0715161,22.5 C12.492201,22.5 12.0201665,22.0082143 12.0201665,21.3975 C12.0201665,17.3025 14.2056249,13.5867857 17.6355379,11.6292857 C18.3803716,11.205 18.889188,10.5460714 18.8830577,9.53357143 C18.8769273,8.1675 17.7979914,7.07142857 16.4952988,7.07142857 L14.9627192,7.07142857 C13.9849335,7.07142857 13.1389496,7.67571429 12.7466092,8.54357143 C12.5836604,8.90143153 12.238943,9.12908181 11.8607783,9.12857143 L7.75346515,9.12857143 C7.13123786,9.12857143 6.66839884,8.53071429 6.79100521,7.89428571 C6.84617807,7.61464286 6.91054641,7.34142857 6.99024054,7.07142857 C8.03852494,3.49714286 11.2109646,0.9 14.9627192,0.9 L16.4339956,0.9 C18.73593,0.9 20.8202382,1.87714286 22.3282964,3.46178571 C23.8394198,5.04321429 24.7712282,7.22892857 24.7712282,9.64285714 Z M18.6230937,27.6680744 C18.6230937,28.6112463 18.2410155,29.4662463 17.6211405,30.0861213 C17.0012655,30.7059963 16.1462655,31.0880744 15.2030937,31.0880744 C14.2599218,31.0880744 13.4049218,30.7059963 12.7850468,30.0861213 C12.1651718,29.4662463 11.7830937,28.6112463 11.7830937,27.6680744 C11.7830937,25.7790588 13.314078,24.2480744 15.2030937,24.2480744 C16.1462655,24.2480744 17.0012655,24.6301526 17.6211405,25.2500276 C18.2410155,25.8699026 18.6230937,26.7249026 18.6230937,27.6680744 Z" id="形状" fill="#000000" fill-rule="nonzero"></path>
                    </g>
                </g>
            </g>
        </g>
    </g>
</svg>